<mxfile host="app.diagrams.net" modified="2023-05-30T08:43:09.196Z" agent="Mozilla/5.0 (Windows NT 10.0; Win64; x64) AppleWebKit/537.36 (KHTML, like Gecko) Chrome/113.0.0.0 Safari/537.36" etag="TdwOaVfMyz6NlcJcgNFI" version="21.3.4" type="github">
  <diagram name="第 1 页" id="2hllzdMnIf6xdmXF52Gc">
    <mxGraphModel dx="987" dy="511" grid="0" gridSize="10" guides="1" tooltips="1" connect="1" arrows="1" fold="1" page="1" pageScale="1" pageWidth="827" pageHeight="1169" math="0" shadow="0">
      <root>
        <mxCell id="0" />
        <mxCell id="1" parent="0" />
        <mxCell id="vRC2Wy1mngXs7sfRuopv-1" value="前台客户端&lt;br&gt;Client" style="rounded=0;whiteSpace=wrap;html=1;" vertex="1" parent="1">
          <mxGeometry x="175" y="180" width="110" height="57" as="geometry" />
        </mxCell>
        <mxCell id="vRC2Wy1mngXs7sfRuopv-3" value="后台管理端&lt;br&gt;Browse" style="rounded=0;whiteSpace=wrap;html=1;" vertex="1" parent="1">
          <mxGeometry x="382" y="65" width="105.75" height="57" as="geometry" />
        </mxCell>
        <mxCell id="vRC2Wy1mngXs7sfRuopv-4" value="服务器&lt;br&gt;Server" style="rounded=0;whiteSpace=wrap;html=1;" vertex="1" parent="1">
          <mxGeometry x="381.5" y="180" width="107.5" height="57" as="geometry" />
        </mxCell>
        <mxCell id="vRC2Wy1mngXs7sfRuopv-6" value="" style="endArrow=classic;html=1;rounded=0;exitX=1;exitY=0.25;exitDx=0;exitDy=0;entryX=0;entryY=0.25;entryDx=0;entryDy=0;" edge="1" parent="1" source="vRC2Wy1mngXs7sfRuopv-1" target="vRC2Wy1mngXs7sfRuopv-4">
          <mxGeometry width="50" height="50" relative="1" as="geometry">
            <mxPoint x="387" y="291" as="sourcePoint" />
            <mxPoint x="437" y="241" as="targetPoint" />
          </mxGeometry>
        </mxCell>
        <mxCell id="vRC2Wy1mngXs7sfRuopv-7" value="" style="endArrow=classic;html=1;rounded=0;exitX=0;exitY=0.75;exitDx=0;exitDy=0;entryX=1;entryY=0.75;entryDx=0;entryDy=0;" edge="1" parent="1" source="vRC2Wy1mngXs7sfRuopv-4" target="vRC2Wy1mngXs7sfRuopv-1">
          <mxGeometry width="50" height="50" relative="1" as="geometry">
            <mxPoint x="295" y="204" as="sourcePoint" />
            <mxPoint x="392" y="204" as="targetPoint" />
          </mxGeometry>
        </mxCell>
        <mxCell id="vRC2Wy1mngXs7sfRuopv-8" value="Restful接口交互" style="text;html=1;strokeColor=none;fillColor=none;align=center;verticalAlign=middle;whiteSpace=wrap;rounded=0;" vertex="1" parent="1">
          <mxGeometry x="287.5" y="194" width="94" height="29" as="geometry" />
        </mxCell>
        <mxCell id="vRC2Wy1mngXs7sfRuopv-9" value="" style="endArrow=classic;html=1;rounded=0;exitX=0.25;exitY=0;exitDx=0;exitDy=0;entryX=0.25;entryY=1;entryDx=0;entryDy=0;" edge="1" parent="1" source="vRC2Wy1mngXs7sfRuopv-4" target="vRC2Wy1mngXs7sfRuopv-3">
          <mxGeometry width="50" height="50" relative="1" as="geometry">
            <mxPoint x="387" y="180" as="sourcePoint" />
            <mxPoint x="437" y="130" as="targetPoint" />
          </mxGeometry>
        </mxCell>
        <mxCell id="vRC2Wy1mngXs7sfRuopv-10" value="" style="endArrow=classic;html=1;rounded=0;exitX=0.75;exitY=1;exitDx=0;exitDy=0;entryX=0.75;entryY=0;entryDx=0;entryDy=0;" edge="1" parent="1" source="vRC2Wy1mngXs7sfRuopv-3" target="vRC2Wy1mngXs7sfRuopv-4">
          <mxGeometry width="50" height="50" relative="1" as="geometry">
            <mxPoint x="418" y="190" as="sourcePoint" />
            <mxPoint x="418" y="132" as="targetPoint" />
          </mxGeometry>
        </mxCell>
        <mxCell id="vRC2Wy1mngXs7sfRuopv-11" value="Restful接口交互" style="text;html=1;strokeColor=none;fillColor=none;align=center;verticalAlign=middle;whiteSpace=wrap;rounded=0;" vertex="1" parent="1">
          <mxGeometry x="385" y="134" width="94" height="29" as="geometry" />
        </mxCell>
        <mxCell id="vRC2Wy1mngXs7sfRuopv-13" value="数据库&lt;br&gt;DataBase" style="strokeWidth=2;html=1;shape=mxgraph.flowchart.database;whiteSpace=wrap;" vertex="1" parent="1">
          <mxGeometry x="578" y="152" width="106" height="96" as="geometry" />
        </mxCell>
        <mxCell id="vRC2Wy1mngXs7sfRuopv-14" value="" style="shape=flexArrow;endArrow=classic;startArrow=classic;html=1;rounded=0;entryX=-0.055;entryY=0.575;entryDx=0;entryDy=0;entryPerimeter=0;exitX=1;exitY=0.5;exitDx=0;exitDy=0;" edge="1" parent="1" target="vRC2Wy1mngXs7sfRuopv-13">
          <mxGeometry width="100" height="100" relative="1" as="geometry">
            <mxPoint x="489" y="207.5" as="sourcePoint" />
            <mxPoint x="577.9860000000001" y="213.08000000000004" as="targetPoint" />
          </mxGeometry>
        </mxCell>
        <mxCell id="vRC2Wy1mngXs7sfRuopv-15" value="数据交互" style="text;html=1;strokeColor=none;fillColor=none;align=center;verticalAlign=middle;whiteSpace=wrap;rounded=0;" vertex="1" parent="1">
          <mxGeometry x="504" y="175" width="60" height="30" as="geometry" />
        </mxCell>
      </root>
    </mxGraphModel>
  </diagram>
</mxfile>
